# xmcd CD database file
#
# Track frame offsets:
#	150
#	19525
#	33454
#
# Disc length: 635 seconds
#
# Revision: 1
# Processed by: cddbd v1.5.1PL0 Copyright (c) Steve Scherf et al.
# Submitted via: CDex 1.51
#
DISCID=18027903
DTITLE=平川地一丁目 - はがれた夜
DYEAR=2005
DGENRE=JPop
TTITLE0=はがれた夜
TTITLE1=夢の世界へ
TTITLE2=ふり向けば戻り道
EXTD=YEAR: 2005
EXTT0=
EXTT1=
EXTT2=
PLAYORDER=
